<?xml version="1.0" standalone="no"?><!DOCTYPE svg PUBLIC "-//W3C//DTD SVG 1.1//EN" "http://www.w3.org/Graphics/SVG/1.1/DTD/svg11.dtd"><svg height="1024" node-id="1" sillyvg="true" template-height="1024" template-width="1024" version="1.1" viewBox="0 0 1024 1024" width="1024" xmlns="http://www.w3.org/2000/svg" xmlns:xlink="http://www.w3.org/1999/xlink"><defs node-id="43"><linearGradient gradientUnits="userSpaceOnUse" id="paint0_linear_608_3731" node-id="30" spreadMethod="pad" x1="512" x2="512" y1="0" y2="1024"><stop offset="0" stop-color="#c0dcfe"></stop><stop offset="1" stop-color="#ffffff" stop-opacity="0"></stop><stop offset="1" stop-color="#8ecbf4"></stop></linearGradient><linearGradient gradientUnits="userSpaceOnUse" id="paint1_linear_608_3731" node-id="34" spreadMethod="pad" x1="1341.97" x2="1024" y1="865.017" y2="-158.982"><stop offset="0" stop-color="#84c8f2"></stop><stop offset="1" stop-color="#c2ddff"></stop></linearGradient><linearGradient gradientUnits="userSpaceOnUse" id="paint2_linear_608_3731" node-id="37" spreadMethod="pad" x1="254.5" x2="510" y1="32.5005" y2="1020"><stop offset="0" stop-color="#bfdbfe"></stop><stop offset="1" stop-color="#8fcbf4"></stop></linearGradient><clipPath id="clip0_608_3731" node-id="40"><path d="M 160.00 0.00 L 864.00 0.00 C 952.37 0.00 1024.00 71.63 1024.00 160.00 L 1024.00 864.00 C 1024.00 952.37 952.37 1024.00 864.00 1024.00 L 160.00 1024.00 C 71.63 1024.00 0.00 952.37 0.00 864.00 L 0.00 160.00 C -0.00 71.63 71.63 0.00 160.00 0.00 Z" fill="#000000" fill-rule="nonzero" node-id="66" stroke="none" target-height="1024" target-width="1024" target-x="0" target-y="0"></path></clipPath></defs><g clip-path="url(#clip0_608_3731)" id="sillyvg_g_0" node-id="70"><path d="M 160.00 0.00 L 864.00 0.00 C 952.37 0.00 1024.00 71.63 1024.00 160.00 L 1024.00 864.00 C 1024.00 952.37 952.37 1024.00 864.00 1024.00 L 160.00 1024.00 C 71.63 1024.00 0.00 952.37 0.00 864.00 L 0.00 160.00 C -0.00 71.63 71.63 0.00 160.00 0.00 Z" fill="url(#paint0_linear_608_3731)" fill-rule="nonzero" node-id="72" stroke="none" target-height="1024" target-width="1024" target-x="0" target-y="0"></path><path d="M 1024.00 512.00 C 1024.00 647.79 970.06 778.02 874.04 874.04 C 778.02 970.06 647.79 1024.00 512.00 1024.00 C 376.21 1024.00 245.98 970.06 149.96 874.04 C 53.94 778.02 0.00 647.79 0.00 512.00 C 0.00 376.21 53.94 245.98 149.96 149.96 C 245.98 53.94 376.21 0.00 512.00 0.00 C 647.79 -0.00 778.02 53.94 874.04 149.96 C 970.06 245.98 1024.00 376.21 1024.00 512.00 Z" fill="url(#paint1_linear_608_3731)" fill-rule="nonzero" node-id="74" stroke="none" target-height="1024" target-width="1024" target-x="0" target-y="0"></path><path d="M 160.00 0.00 L 860.00 0.00 C 948.37 0.00 1020.00 71.63 1020.00 160.00 L 1020.00 860.00 C 1020.00 948.37 948.37 1020.00 860.00 1020.00 L 160.00 1020.00 C 71.63 1020.00 0.00 948.37 0.00 860.00 L 0.00 160.00 C -0.00 71.63 71.63 0.00 160.00 0.00 Z" fill="url(#paint2_linear_608_3731)" fill-rule="nonzero" node-id="76" stroke="none" target-height="1020" target-width="1020" target-x="0" target-y="0.00048828"></path><path d="M -13.14 279.14 C 127.54 279.14 251.05 438.44 251.05 591.14 C 251.05 611.34 234.67 627.71 214.48 627.71 C 194.28 627.71 177.91 611.34 177.91 591.14 C 177.91 475.35 82.49 352.29 -13.14 352.29 C -108.38 352.29 -202.29 474.81 -202.29 591.14 C -202.29 611.34 -218.66 627.71 -238.86 627.71 C -259.06 627.71 -275.43 611.34 -275.43 591.14 C -275.43 438.03 -153.66 279.14 -13.14 279.14 Z" fill="#9b61ff" fill-rule="nonzero" node-id="78" stroke="none" target-height="348.57098" target-width="526.477" target-x="-275.429" target-y="279.143"></path><path d="M -13.14 227.71 C 155.21 227.71 302.48 409.79 302.48 591.14 C 302.48 611.34 286.10 627.71 265.90 627.71 C 245.71 627.71 229.33 611.34 229.33 591.14 C 229.33 447.17 110.99 300.86 -13.14 300.86 C -136.89 300.86 -253.71 446.67 -253.71 591.14 C -253.71 611.34 -270.09 627.71 -290.29 627.71 C -310.48 627.71 -326.86 611.34 -326.86 591.14 C -326.86 409.39 -181.30 227.71 -13.14 227.71 Z" fill="#2195ff" fill-rule="nonzero" node-id="80" stroke="none" target-height="400" target-width="629.333" target-x="-326.857" target-y="227.714"></path><path d="M -13.14 170.57 C 186.20 170.57 359.62 378.02 359.62 591.14 C 359.62 611.34 343.25 627.72 323.05 627.72 C 302.85 627.72 286.48 611.34 286.48 591.14 C 286.48 415.81 142.62 243.72 -13.14 243.72 C -168.53 243.72 -310.86 415.32 -310.86 591.14 C -310.86 611.34 -327.23 627.72 -347.43 627.72 C -367.63 627.72 -384.00 611.34 -384.00 591.14 C -384.00 377.63 -212.26 170.57 -13.14 170.57 Z" fill="#35e6e6" fill-rule="nonzero" node-id="82" stroke="none" target-height="457.143" target-width="743.619" target-x="-384" target-y="170.572"></path><path d="M -13.14 121.05 C 213.19 121.05 409.14 350.53 409.14 591.14 C 409.14 611.34 392.77 627.72 372.57 627.72 C 352.37 627.72 336.00 611.34 336.00 591.14 C 336.00 388.59 170.00 194.19 -13.14 194.19 C -195.91 194.19 -360.38 388.12 -360.38 591.14 C -360.38 611.34 -376.75 627.72 -396.95 627.72 C -417.15 627.72 -433.52 611.34 -433.52 591.14 C -433.52 350.14 -239.23 121.05 -13.14 121.05 Z" fill="#14d3a1" fill-rule="nonzero" node-id="84" stroke="none" target-height="506.66702" target-width="842.667" target-x="-433.524" target-y="121.048"></path><path d="M -14.10 71.52 C 239.82 71.52 458.67 323.49 458.67 592.10 C 458.67 612.29 442.29 628.67 422.10 628.67 C 401.90 628.67 385.52 612.29 385.52 592.10 C 385.52 361.77 196.95 144.67 -14.10 144.67 C -224.77 144.67 -411.81 361.31 -411.81 592.10 C -411.81 612.29 -428.18 628.67 -448.38 628.67 C -468.58 628.67 -484.95 612.29 -484.95 592.10 C -484.95 323.11 -267.75 71.52 -14.10 71.52 Z" fill="#feda42" fill-rule="nonzero" node-id="86" stroke="none" target-height="557.14307" target-width="943.619" target-x="-484.952" target-y="71.5239"></path><path d="M -13.14 -36.57 C 302.88 -36.57 572.95 265.94 572.95 597.33 C 572.95 617.53 556.58 633.90 536.38 633.90 C 516.18 633.90 499.81 617.53 499.81 597.33 C 499.81 304.60 260.52 36.57 -13.14 36.57 C -286.44 36.57 -524.19 304.16 -524.19 597.33 C -524.19 617.53 -540.56 633.90 -560.76 633.90 C -580.96 633.90 -597.33 617.53 -597.33 597.33 C -597.33 265.56 -328.89 -36.57 -13.14 -36.57 Z" fill="#fb6849" fill-rule="nonzero" node-id="88" stroke="none" target-height="670.4763" target-width="1170.285" target-x="-597.333" target-y="-36.5713"></path><path d="M -13.14 16.29 C 270.50 16.29 513.90 292.45 513.90 591.14 C 513.90 611.34 497.53 627.71 477.33 627.71 C 457.13 627.71 440.76 611.34 440.76 591.14 C 440.76 330.93 227.90 89.43 -13.14 89.43 C -253.82 89.43 -465.14 330.48 -465.14 591.14 C -465.14 611.34 -481.52 627.71 -501.71 627.71 C -521.91 627.71 -538.29 611.34 -538.29 591.14 C -538.29 292.07 -296.51 16.29 -13.14 16.29 Z" fill="#ffbc01" fill-rule="nonzero" node-id="90" stroke="none" target-height="611.4284" target-width="1052.191" target-x="-538.286" target-y="16.2856"></path><path d="M 686.72 649.94 C 681.14 649.94 676.62 645.42 676.62 639.84 L 676.62 531.04 C 676.62 525.47 681.14 520.94 686.72 520.94 C 692.31 520.94 696.83 525.47 696.83 531.04 L 696.83 639.84 C 696.83 645.42 692.31 649.94 686.72 649.94 Z" fill="#674447" fill-rule="nonzero" node-id="92" stroke="none" target-height="129" target-width="20.215027" target-x="676.615" target-y="520.941"></path><path d="M 750.39 521.77 C 750.39 556.94 721.88 585.44 686.72 585.44 C 651.56 585.44 623.05 556.94 623.05 521.77 C 623.05 486.61 651.56 378.52 686.72 378.52 C 721.88 378.53 750.39 486.61 750.39 521.77 Z" fill="#43ab5f" fill-rule="nonzero" node-id="94" stroke="none" target-height="206.91599" target-width="127.33197" target-x="623.054" target-y="378.525"></path><path d="M 750.39 521.77 C 750.39 556.94 721.88 585.44 686.72 585.44 C 651.56 585.44 623.05 556.94 623.05 521.77 C 623.05 486.61 651.56 378.52 686.72 378.52 C 721.88 378.53 750.39 486.61 750.39 521.77 Z" fill="#bbdbfe" fill-opacity="0.3" fill-rule="nonzero" node-id="96" stroke="none" target-height="206.91599" target-width="127.33197" target-x="623.054" target-y="378.525"></path><path d="M 686.72 378.52 C 677.89 378.52 669.49 385.35 661.85 396.11 L 661.85 396.11 C 694.03 396.11 720.12 495.04 720.12 527.22 C 720.12 555.21 700.36 578.55 674.04 584.16 C 678.14 584.99 682.38 585.44 686.72 585.44 C 721.88 585.44 750.38 556.94 750.38 521.77 C 750.39 486.61 721.88 378.52 686.72 378.52 Z" fill="#71be63" fill-rule="nonzero" node-id="98" stroke="none" target-height="206.91599" target-width="88.53998" target-x="661.846" target-y="378.525"></path><path d="M 686.72 378.52 C 677.89 378.52 669.49 385.35 661.85 396.11 L 661.85 396.11 C 694.03 396.11 720.12 495.04 720.12 527.22 C 720.12 555.21 700.36 578.55 674.04 584.16 C 678.14 584.99 682.38 585.44 686.72 585.44 C 721.88 585.44 750.38 556.94 750.38 521.77 C 750.39 486.61 721.88 378.52 686.72 378.52 Z" fill="#badafd" fill-opacity="0.3" fill-rule="nonzero" node-id="100" stroke="none" target-height="206.91599" target-width="88.53998" target-x="661.846" target-y="378.525"></path><path d="M 992.86 915.86 L 518.86 661.99 L 530.86 636.09 C 645.63 636.09 844.79 519.43 1206.86 560.76 C 1206.86 688.29 1160.12 804.84 1082.98 894.47 C 1034.53 906.05 992.86 915.86 992.86 915.86 Z" fill="#9bf4af" fill-rule="nonzero" node-id="102" stroke="none" target-height="396.43195" target-width="688.003" target-x="518.857" target-y="519.426"></path><path d="M 992.86 915.86 L 518.86 661.99 L 530.86 636.09 C 645.63 636.09 844.79 519.43 1206.86 560.76 C 1206.86 688.29 1160.12 804.84 1082.98 894.47 C 1034.53 906.05 992.86 915.86 992.86 915.86 Z" fill="#477468" fill-opacity="0.4" fill-rule="nonzero" node-id="104" stroke="none" target-height="396.43195" target-width="688.003" target-x="518.857" target-y="519.426"></path><path d="M 530.86 636.10 C 636.10 636.10 812.42 538.08 1120.14 553.67 C 846.55 553.91 678.77 676.38 592.86 676.38 L 568.86 667.42 L 530.14 637.64 L 530.86 636.10 Z" fill="#9cffb2" fill-rule="nonzero" node-id="106" stroke="none" target-height="138.29797" target-width="589.997" target-x="530.143" target-y="538.078"></path><path d="M 530.86 636.10 C 636.10 636.10 812.42 538.08 1120.14 553.67 C 846.55 553.91 678.77 676.38 592.86 676.38 L 568.86 667.42 L 530.14 637.64 L 530.86 636.10 Z" fill="#477468" fill-opacity="0.7" fill-rule="nonzero" node-id="108" stroke="none" target-height="138.29797" target-width="589.997" target-x="530.143" target-y="538.078"></path><path d="M 1029.92 722.57 C 1140.96 1046.59 730.73 1115.86 523.04 1115.86 C 377.19 1115.86 103.40 1056.13 -3.01 947.20 C -28.91 924.66 -10.81 812.00 -31.12 771.51 C -50.67 732.54 -3.04 654.36 11.32 642.21 C 64.42 597.29 157.42 552.65 284.26 562.38 C 610.91 587.44 753.72 720.00 1029.92 720.00 L 1029.92 722.57 Z" fill="#9cffb2" fill-rule="nonzero" node-id="110" stroke="none" target-height="563.20996" target-width="1191.6348" target-x="-50.6748" target-y="552.65"></path><path d="M 1029.92 722.57 C 1140.96 1046.59 730.73 1115.86 523.04 1115.86 C 377.19 1115.86 103.40 1056.13 -3.01 947.20 C -28.91 924.66 -10.81 812.00 -31.12 771.51 C -50.67 732.54 -3.04 654.36 11.32 642.21 C 64.42 597.29 157.42 552.65 284.26 562.38 C 610.91 587.44 753.72 720.00 1029.92 720.00 L 1029.92 722.57 Z" fill="#477468" fill-opacity="0.6" fill-rule="nonzero" node-id="112" stroke="none" target-height="563.20996" target-width="1191.6348" target-x="-50.6748" target-y="552.65"></path><path d="M 902.96 686.57 C 896.62 686.57 891.48 681.43 891.48 675.10 L 891.48 551.64 C 891.48 545.31 896.62 540.18 902.96 540.18 C 909.30 540.18 914.43 545.31 914.43 551.64 L 914.43 675.10 C 914.43 681.43 909.29 686.57 902.96 686.57 Z" fill="#674447" fill-rule="nonzero" node-id="114" stroke="none" target-height="146.38397" target-width="22.942993" target-x="891.484" target-y="540.181"></path><path d="M 975.20 541.13 C 975.20 581.03 942.85 613.37 902.95 613.37 C 863.05 613.37 830.71 581.03 830.71 541.13 C 830.71 501.23 863.05 378.57 902.95 378.57 C 942.85 378.57 975.20 501.23 975.20 541.13 Z" fill="#43ab5f" fill-rule="nonzero" node-id="116" stroke="none" target-height="234.80197" target-width="144.492" target-x="830.707" target-y="378.571"></path><path d="M 975.20 541.13 C 975.20 581.03 942.85 613.37 902.95 613.37 C 863.05 613.37 830.71 581.03 830.71 541.13 C 830.71 501.23 863.05 378.57 902.95 378.57 C 942.85 378.57 975.20 501.23 975.20 541.13 Z" fill="#bbdbfe" fill-opacity="0.3" fill-rule="nonzero" node-id="118" stroke="none" target-height="234.80197" target-width="144.492" target-x="830.707" target-y="378.571"></path><path d="M 902.95 378.57 C 892.94 378.57 883.40 386.31 874.73 398.52 L 874.73 398.52 C 911.25 398.52 940.85 510.78 940.85 547.30 C 940.85 579.07 918.43 605.55 888.57 611.92 C 893.22 612.87 898.02 613.38 902.95 613.38 C 942.85 613.38 975.20 581.03 975.20 541.13 C 975.20 501.23 942.85 378.57 902.95 378.57 Z" fill="#71be63" fill-rule="nonzero" node-id="120" stroke="none" target-height="234.80399" target-width="100.474" target-x="874.727" target-y="378.571"></path><path d="M 902.95 378.57 C 892.94 378.57 883.40 386.31 874.73 398.52 L 874.73 398.52 C 911.25 398.52 940.85 510.78 940.85 547.30 C 940.85 579.07 918.43 605.55 888.57 611.92 C 893.22 612.87 898.02 613.38 902.95 613.38 C 942.85 613.38 975.20 581.03 975.20 541.13 C 975.20 501.23 942.85 378.57 902.95 378.57 Z" fill="#badafd" fill-opacity="0.3" fill-rule="nonzero" node-id="122" stroke="none" target-height="234.80399" target-width="100.474" target-x="874.727" target-y="378.571"></path></g></svg>