<?xml version="1.0" standalone="no"?><!DOCTYPE svg PUBLIC "-//W3C//DTD SVG 1.1//EN" "http://www.w3.org/Graphics/SVG/1.1/DTD/svg11.dtd"><svg height="1024" node-id="1" sillyvg="true" template-height="1024" template-width="1024" version="1.1" viewBox="0 0 1024 1024" width="1024" xmlns="http://www.w3.org/2000/svg" xmlns:xlink="http://www.w3.org/1999/xlink"><defs node-id="51"><linearGradient gradientUnits="userSpaceOnUse" id="paint0_linear_609_4530" node-id="18" spreadMethod="pad" x1="60.9524" x2="85.3333" y1="-121.905" y2="1170.29"><stop offset="0.105158" stop-color="#ff2e53"></stop><stop offset="0.605776" stop-color="#feda42"></stop><stop offset="0.915348" stop-color="#fea747"></stop></linearGradient><radialGradient cx="0" cy="0" fx="0" fy="0" gradientTransform="matrix(0 786.286 -4956.11 0 493.715 512)" gradientUnits="userSpaceOnUse" id="paint1_radial_609_4530" node-id="22" r="1" rev="8" spreadMethod="pad"><stop offset="0" stop-color="#f7c66b"></stop><stop offset="0.117647" stop-color="#ff868c"></stop><stop offset="0.333253" stop-color="#661b94"></stop><stop offset="0.950221" stop-color="#661b94"></stop></radialGradient><linearGradient gradientUnits="userSpaceOnUse" id="paint2_linear_609_4530" node-id="27" spreadMethod="pad" x1="664.389" x2="664.389" y1="769.476" y2="609.795"><stop offset="0" stop-color="#ffffff"></stop><stop offset="1" stop-color="#fceebc" stop-opacity="0.9"></stop></linearGradient><linearGradient gradientUnits="userSpaceOnUse" id="paint3_linear_609_4530" node-id="30" spreadMethod="pad" x1="617.132" x2="604.855" y1="645.958" y2="582.799"><stop offset="0" stop-color="#ffffff"></stop><stop offset="1" stop-color="#fceebc" stop-opacity="0.9"></stop></linearGradient><linearGradient gradientUnits="userSpaceOnUse" id="paint4_linear_609_4530" node-id="33" spreadMethod="pad" x1="941.511" x2="-19.2925" y1="1026.6" y2="765.541"><stop offset="0" stop-color="#4c1f54"></stop><stop offset="1" stop-color="#754a6d"></stop></linearGradient><linearGradient gradientUnits="userSpaceOnUse" id="paint5_linear_609_4530" node-id="36" spreadMethod="pad" x1="487.619" x2="463.238" y1="731.428" y2="999.619"><stop offset="0" stop-color="#ffffff"></stop><stop offset="1" stop-color="#ffd987"></stop></linearGradient><linearGradient gradientUnits="userSpaceOnUse" id="paint6_linear_609_4530" node-id="39" spreadMethod="pad" x1="966.753" x2="-222.671" y1="1038.29" y2="1018.56"><stop offset="0" stop-color="#36023f"></stop><stop offset="1" stop-color="#6c3361"></stop></linearGradient><linearGradient gradientUnits="userSpaceOnUse" id="paint7_linear_609_4530" node-id="42" spreadMethod="pad" x1="27.4286" x2="24.381" y1="615.619" y2="780.191"><stop offset="0" stop-color="#09000e"></stop><stop offset="1" stop-color="#380156"></stop></linearGradient><linearGradient gradientUnits="userSpaceOnUse" id="paint8_linear_609_4530" node-id="45" spreadMethod="pad" x1="60.9525" x2="182.857" y1="676.572" y2="585.143"><stop offset="0" stop-color="#8b2d7c"></stop><stop offset="1" stop-color="#f5c471"></stop></linearGradient><clipPath id="clip0_609_4530" node-id="48"><path d="M 160.00 0.00 L 864.00 0.00 C 952.37 0.00 1024.00 71.63 1024.00 160.00 L 1024.00 864.00 C 1024.00 952.37 952.37 1024.00 864.00 1024.00 L 160.00 1024.00 C 71.63 1024.00 0.00 952.37 0.00 864.00 L 0.00 160.00 C -0.00 71.63 71.63 0.00 160.00 0.00 Z" fill="#000000" fill-rule="nonzero" node-id="114" stroke="none" target-height="1024" target-width="1024" target-x="0" target-y="0"></path></clipPath></defs><g clip-path="url(#clip0_609_4530)" id="sillyvg_g_0" node-id="118"><path d="M 160.00 0.00 L 864.00 0.00 C 952.37 0.00 1024.00 71.63 1024.00 160.00 L 1024.00 864.00 C 1024.00 952.37 952.37 1024.00 864.00 1024.00 L 160.00 1024.00 C 71.63 1024.00 0.00 952.37 0.00 864.00 L 0.00 160.00 C -0.00 71.63 71.63 0.00 160.00 0.00 Z" fill="url(#paint0_linear_609_4530)" fill-rule="nonzero" node-id="120" stroke="none" target-height="1024" target-width="1024" target-x="0" target-y="0"></path><path d="M 646.10 499.81 C 646.10 573.87 586.06 633.90 512.00 633.90 C 437.94 633.90 377.90 573.87 377.90 499.81 C 377.90 425.75 437.94 365.71 512.00 365.71 C 586.06 365.71 646.10 425.75 646.10 499.81 Z" fill="#fdf1dc" fill-rule="nonzero" node-id="122" stroke="none" target-height="268.19003" target-width="268.18997" target-x="377.905" target-y="365.715"></path><path d="M 512.00 1024.00 C 1230.31 1107.33 1024.00 794.77 1024.00 512.00 L 0.00 512.00 C 0.00 794.77 -136.03 1060.64 512.00 1024.00 Z" fill="url(#paint1_radial_609_4530)" fill-rule="nonzero" node-id="124" stroke="none" target-height="595.32996" target-width="1366.3411" target-x="-136.031" target-y="512"></path><path d="M 768.00 768.00 C 894.84 777.73 1118.31 737.84 1171.41 692.91 C 1171.41 692.91 895.85 739.91 798.73 737.79 C 505.90 731.43 158.73 609.79 158.73 609.79 C 134.35 609.79 441.35 742.94 768.00 768.00 Z" fill="url(#paint2_linear_609_4530)" fill-opacity="0.2" fill-rule="nonzero" group-id="1" node-id="128" stroke="none" target-height="167.93604" target-width="1037.062" target-x="134.348" target-y="609.795"></path><path d="M 724.10 559.65 C 489.81 591.93 233.77 545.29 267.18 535.65 C 267.18 535.65 528.02 557.26 724.10 559.65 Z" fill="#ffffff" fill-opacity="0.2" fill-rule="nonzero" group-id="2" node-id="133" stroke="none" target-height="56.275024" target-width="490.33203" target-x="233.766" target-y="535.651"></path><path d="M 786.41 599.70 C 841.14 640.00 359.62 621.71 438.86 615.62 C 518.10 609.52 700.95 623.65 786.41 599.70 Z" fill="url(#paint3_linear_609_4530)" fill-opacity="0.2" fill-rule="nonzero" group-id="3" node-id="138" stroke="none" target-height="40.297974" target-width="481.52402" target-x="359.619" target-y="599.702"></path><path d="M 1025.68 905.15 C 945.37 1082.86 715.44 1221.88 507.76 1221.88 C 361.91 1221.88 189.91 1153.44 72.28 1051.08 C 46.38 1028.54 17.43 984.23 -2.89 943.74 C -22.44 904.77 -19.47 800.38 -5.11 788.23 C 47.98 743.30 153.18 735.24 280.02 744.97 C 606.67 770.03 749.48 902.59 1025.68 902.59 L 1025.68 905.15 Z" fill="url(#paint4_linear_609_4530)" fill-rule="nonzero" node-id="141" stroke="none" target-height="486.64398" target-width="1048.122" target-x="-22.4419" target-y="735.236"></path><path d="M 1008.35 938.98 C 1014.71 927.88 1020.51 916.60 1025.68 905.15 L 1025.68 902.59 C 884.13 902.59 777.62 867.77 663.45 830.46 C 554.83 794.95 439.27 757.18 280.02 744.97 C 153.18 735.24 47.98 743.30 -5.11 788.23 L -5.11 812.61 C 47.98 767.68 153.18 759.62 280.02 769.35 C 439.27 781.57 554.83 831.52 663.45 867.03 C 772.91 902.81 875.34 936.28 1008.35 938.98 Z" fill="url(#paint5_linear_609_4530)" fill-opacity="0.25" fill-rule="nonzero" group-id="4" node-id="145" stroke="none" target-height="203.74597" target-width="1030.7936" target-x="-5.11353" target-y="735.236"></path><path d="M 1037.99 902.31 C 991.81 1133.00 759.25 1346.63 515.12 1403.00 C 343.67 1442.58 122.91 1360.04 -43.15 1271.63 C -79.71 1252.17 -125.77 1207.95 -160.64 1165.86 C -194.20 1125.36 -194.78 1041.52 -181.20 1023.34 C -130.98 956.12 -33.76 878.40 117.98 855.42 C 508.77 796.23 594.80 987.04 1037.29 899.29 L 1037.99 902.31 Z" fill="url(#paint6_linear_609_4530)" fill-rule="nonzero" node-id="148" stroke="none" target-height="646.34894" target-width="1232.7739" target-x="-194.784" target-y="796.231"></path><path d="M -9.54 826.73 L 146.29 707.05 L -9.54 707.05 L -9.54 826.73 Z" fill="#220136" fill-opacity="0.5" fill-rule="nonzero" node-id="150" stroke="none" target-height="119.68201" target-width="155.82335" target-x="-9.53735" target-y="707.048"></path><path d="M 1212.95 402.29 C 1177.94 402.29 1158.10 384.00 1115.43 384.00 C 1093.65 384.00 1255.62 436.93 1212.95 457.14 C 1173.35 471.45 981.33 459.07 902.10 457.14 C 822.86 455.22 755.81 512.00 755.81 512.00 L 1109.33 518.10 L 1097.14 530.29 L 1383.62 542.48 L 1383.62 341.33 C 1383.62 341.33 1334.86 307.30 1304.38 335.24 C 1264.48 371.81 1247.96 402.29 1212.95 402.29 Z" fill="#b56c7f" fill-rule="nonzero" node-id="152" stroke="none" target-height="235.17603" target-width="627.81" target-x="755.81" target-y="307.302"></path><path d="M -170.67 402.29 C -135.66 402.29 -115.81 384.00 -73.14 384.00 C -51.36 384.00 -12.19 438.86 30.48 459.07 C 70.07 473.38 115.42 457.14 140.19 457.14 C 164.57 457.14 286.48 512.00 286.48 512.00 L -67.05 518.10 L -54.86 530.29 L -341.33 542.48 L -341.33 341.33 C -341.33 341.33 -292.57 307.30 -262.10 335.24 C -222.20 371.81 -205.68 402.29 -170.67 402.29 Z" fill="#b46a7e" fill-rule="nonzero" node-id="154" stroke="none" target-height="235.17603" target-width="627.809" target-x="-341.333" target-y="307.302"></path><path d="M 42.67 654.63 L 42.67 615.62 L 0.00 646.10 L 0.00 719.24 L 73.14 719.24 L 79.24 676.57 L 42.67 654.63 Z" fill="url(#paint7_linear_609_4530)" fill-rule="nonzero" node-id="156" stroke="none" target-height="103.61896" target-width="79.2381" target-x="0" target-y="615.619"></path><path d="M 42.67 655.60 L 42.67 615.62 L 128.00 646.10 L 146.29 707.05 L 73.14 719.24 L 79.24 676.57 L 42.67 655.60 Z" fill="url(#paint8_linear_609_4530)" fill-rule="nonzero" node-id="158" stroke="none" target-height="103.61896" target-width="103.61929" target-x="42.6667" target-y="615.619"></path></g></svg>